<mxfile host="app.diagrams.net" modified="2023-08-25T15:17:30.099Z" agent="Mozilla/5.0 (Windows NT 10.0; Win64; x64) AppleWebKit/537.36 (KHTML, like Gecko) Chrome/116.0.0.0 Safari/537.36 Edg/116.0.1938.54" version="21.6.9" etag="GELjeOP4oYSLlszn3FN2" type="github">
  <diagram name="Page-1" id="U8qsnRem7V7P8zCK9oUq">
    <mxGraphModel>
      <root>
        <mxCell id="0" />
        <mxCell id="1" parent="0" />
      </root>
    </mxGraphModel>
  </diagram>
</mxfile>
